HIERARCHY
ROOT Hips
{
  OFFSET -102.467 93.6631 130.069
  CHANNELS 6 Xposition Yposition Zposition Zrotation Xrotation Yrotation
  JOINT LeftUpLeg
  {
    OFFSET 8.64259 1.95398 -2.38835
    CHANNELS 3 Zrotation Xrotation Yrotation
    JOINT LeftLeg
    {
      OFFSET 43.7702 0 0
      CHANNELS 3 Zrotation Xrotation Yrotation
      JOINT LeftFoot
      {
        OFFSET 40.6238 0 0
        CHANNELS 3 Zrotation Xrotation Yrotation
        JOINT LeftToeBase
        {
          OFFSET 12.7242 0 0
          CHANNELS 3 Zrotation Xrotation Yrotation
          End Site
          {
            OFFSET 0 0 0
          }
        }
      }
    }
  }
  JOINT RightUpLeg
  {
    OFFSET -8.2249 1.95398 -2.59336
    CHANNELS 3 Zrotation Xrotation Yrotation
    JOINT RightLeg
    {
      OFFSET 43.5653 0 0
      CHANNELS 3 Zrotation Xrotation Yrotation
      JOINT RightFoot
      {
        OFFSET 40.6238 0 0
        CHANNELS 3 Zrotation Xrotation Yrotation
        JOINT RightToeBase
        {
          OFFSET 12.7242 0 0
          CHANNELS 3 Zrotation Xrotation Yrotation
          End Site
          {
            OFFSET 0 0 0
          }
        }
      }
    }
  }
  JOINT Spine
  {
    OFFSET 0.165834 0.87714 6.61349
    CHANNELS 3 Zrotation Xrotation Yrotation
    JOINT Spine1
    {
      OFFSET 7.38963 1.71661e-005 0
      CHANNELS 3 Zrotation Xrotation Yrotation
      JOINT Spine2
      {
        OFFSET 11.9445 1.14441e-005 0
        CHANNELS 3 Zrotation Xrotation Yrotation
        JOINT Spine3
        {
          OFFSET 14.7254 4.19617e-005 0
          CHANNELS 3 Zrotation Xrotation Yrotation
          JOINT Spine4
          {
            OFFSET 10.9679 0 0
            CHANNELS 3 Zrotation Xrotation Yrotation
            JOINT RightShoulder
            {
              OFFSET 2.46616 -1.6653 3.69651
              CHANNELS 3 Zrotation Xrotation Yrotation
              JOINT RightArm
              {
                OFFSET 13.0012 0 0
                CHANNELS 3 Zrotation Xrotation Yrotation
                JOINT RightForeArm
                {
                  OFFSET 28.7848 1.52588e-005 0
                  CHANNELS 3 Zrotation Xrotation Yrotation
                  JOINT RightHand
                  {
                    OFFSET 26.5688 1.52588e-005 0
                    CHANNELS 3 Zrotation Xrotation Yrotation
                    End Site
                    {
                      OFFSET 0 0 0
                    }
                  }
                }
              }
            }
            JOINT LeftShoulder
            {
              OFFSET 2.38034 -1.29275 -3.7523
              CHANNELS 3 Zrotation Xrotation Yrotation
              JOINT LeftArm
              {
                OFFSET 16.3182 6.10351e-005 0
                CHANNELS 3 Zrotation Xrotation Yrotation
                JOINT LeftForeArm
                {
                  OFFSET 27.0901 0 0
                  CHANNELS 3 Zrotation Xrotation Yrotation
                  JOINT LeftHand
                  {
                    OFFSET 24.5451 1.52588e-005 0
                    CHANNELS 3 Zrotation Xrotation Yrotation
                    End Site
                    {
                      OFFSET 0 0 0
                    }
                  }
                }
              }
            }
            JOINT Neck
            {
              OFFSET 5.0226 -0.0266342 0
              CHANNELS 3 Zrotation Xrotation Yrotation
              JOINT Head
              {
                OFFSET 6.69363 2.86102e-005 0
                CHANNELS 3 Zrotation Xrotation Yrotation
                End Site
                {
                  OFFSET 0 0 0
                }
              }
            }
          }
        }
      }
    }
  }
}
MOTION
Frames:	10
Frame Time:	0.0416667
-305.95 65.9553 348.901 -94.0055 -34.6233 -89.8911 -169.683 31.6461 91.2958 -98.2828 17.5826 -2.80729 106.272 51.8744 20.3611 -1.90616 -2.79297 30.6811 -178.156 51.6917 95.5041 -95.8997 -15.8451 -0.521474 127.002 -31.0243 13.8664 -64.0509 23.3786 0.77614 0.00108761 5.57459 -90.3484 15.7315 -0.177316 -0.673812 4.06063 -0.204008 -0.665548 -18.471 0.0388742 -0.694684 1.5417 0.0388741 -0.694684 65.7399 -42.5159 -141.186 29.0909 19.9314 3.67615 -21.0768 -15.8436 -50.1826 14.6209 10.086 61.8697 -131.037 -65.3013 31.4288 -13.9044 -24.7013 38.2162 24.4051 20.161 -32.7032 -8.97464 -0.0488289 -5.05601 -79.2536 16.8176 12.1682 90.9659 34.3593 8.6447 
-306.063 65.945 349.073 -94.0128 -34.6547 -89.8342 -169.863 31.9925 91.5131 -98.3366 18.029 -2.82757 106.148 51.7824 20.3213 -2.64231 -2.79654 30.1538 -178.099 51.6646 95.4133 -95.7844 -16.3568 -0.499268 127.879 -31.4127 14.3778 -67.125 23.4469 2.00256 0.00197301 5.57418 -90.3549 15.7314 -0.177315 -0.68662 4.06057 -0.205003 -0.678268 -18.4709 0.039865 -0.707403 1.54172 0.0398604 -0.707402 65.7304 -42.4115 -141.268 29.1109 20.0676 3.92449 -21.1614 -15.7808 -50.4535 14.7083 10.1412 61.8529 -131.046 -65.277 31.406 -13.9047 -24.5406 38.1583 24.2962 20.1619 -32.7488 -9.48785 -0.0475217 -5.05601 -79.264 16.8141 12.1153 90.9922 34.3689 8.68527 
-306.39 65.9215 349.568 -94.0338 -34.7461 -89.668 -170.389 32.9898 92.1474 -98.4588 19.2597 -2.88296 105.746 51.483 20.213 -4.77422 -2.74008 28.4983 -177.979 51.643 95.2109 -95.4814 -17.8705 -0.431579 130.056 -32.5506 15.6076 -75.5211 23.0007 5.71857 0.00415329 5.57298 -90.3734 15.7313 -0.179704 -0.723368 4.06036 -0.211264 -0.714768 -18.4708 0.0461098 -0.7439 1.54183 0.046093 -0.743904 65.7028 -42.1126 -141.507 29.1654 20.4617 4.64311 -21.4041 -15.5988 -51.2366 14.9591 10.2986 61.801 -131.067 -65.2052 31.3421 -13.9028 -24.0773 37.9932 23.9932 20.1791 -32.8843 -10.9708 -0.0388345 -5.05865 -79.2923 16.8051 11.9605 91.0691 34.3945 8.80008 
-306.913 65.9004 350.35 -94.0668 -34.8929 -89.3995 -171.254 34.5632 93.1725 -98.5554 21.0481 -2.96162 104.984 50.9088 20.0681 -8.21465 -2.3959 25.368 -177.913 51.7617 95.0524 -95.0929 -20.431 -0.311682 132.535 -34.495 16.8441 -87.2084 20.3485 11.7861 0.00783705 5.57094 -90.4027 15.731 -0.187116 -0.78141 4.06001 -0.221337 -0.772426 -18.4706 0.0563713 -0.801524 1.54202 0.0563688 -0.801526 65.6617 -41.6466 -141.879 29.2429 21.0868 5.78282 -21.7835 -15.3096 -52.478 15.3522 10.5429 61.71 -131.094 -65.085 31.2456 -13.8934 -23.3433 37.7341 23.5454 20.251 -33.1142 -13.344 -0.0214714 -5.08977 -79.3308 16.7921 11.7088 91.1957 34.4288 8.97706 
-307.612 65.8944 351.381 -94.1102 -35.0905 -89.0357 -172.46 36.6222 94.568 -98.5106 23.1512 -3.05064 103.758 49.9743 19.9358 -12.9584 -1.24986 19.9298 -178.013 52.1426 95.0886 -94.7367 -24.248 -0.125842 134.222 -37.5002 17.2055 -99.0823 13.5197 19.3638 0.0128522 5.56803 -90.4413 15.7306 -0.196732 -0.85811 4.05952 -0.234296 -0.848631 -18.4703 0.0702476 -0.877563 1.54231 0.0702627 -0.87757 65.6148 -41.0452 -142.355 29.3294 21.9107 7.2859 -22.2748 -14.9272 -54.1161 15.864 10.8561 61.5733 -131.116 -64.9143 31.1259 -13.8704 -22.3715 37.3946 23.0122 20.4271 -33.4498 -16.5399 0.0125346 -5.19935 -79.3708 16.7754 11.364 91.3737 34.4621 9.20287 
-308.469 65.9033 352.626 -94.1622 -35.3348 -88.5826 -174.021 39.0635 96.3262 -98.2387 25.086 -3.13093 102.32 48.5546 19.4373 -18.857 1.81108 10.5236 -178.36 52.8504 95.4154 -94.4988 -29.7733 0.147152 133.998 -41.9708 15.6307 -107.563 1.32045 27.6068 0.0192237 5.56957 -90.4881 15.7301 -0.207675 -0.950699 4.0589 -0.249312 -0.940645 -18.4709 0.0876389 -0.969165 1.54178 0.0876377 -0.969166 65.5704 -40.3419 -142.902 29.4095 22.8979 9.09092 -22.8532 -14.4657 -56.0858 16.4712 11.2198 61.3828 -131.123 -64.6892 30.9932 -13.8263 -21.1954 36.9887 22.4516 20.7553 -33.9038 -20.4968 0.0815141 -5.44757 -79.4022 16.7546 10.9294 91.6061 34.4833 9.46339 
-309.465 65.9091 354.054 -94.2212 -35.6218 -88.0465 -175.962 41.7703 98.4492 -97.7168 25.8865 -3.1665 101.464 46.4564 17.453 -24.1336 8.93738 -6.09409 -179.005 53.906 96.0847 -94.4125 -37.7854 0.537898 130.112 -48.2584 10.2921 -109.265 -15.9355 37.3792 0.0270131 5.57221 -90.5413 15.7271 -0.21908 -1.05616 4.05573 -0.265358 -1.0455 -18.4759 0.108454 -1.07317 1.53677 0.108444 -1.07317 65.536 -39.5708 -143.488 29.4698 24.0102 11.1325 -23.4954 -13.9395 -58.3187 17.1512 11.6153 61.1289 -131.104 -64.4051 30.8573 -13.7524 -19.8498 36.5308 21.9147 21.2738 -34.4876 -25.1426 0.218391 -5.90491 -79.4148 16.7292 10.4069 91.897 34.48 9.74334 
-310.586 65.8777 355.637 -94.285 -35.9473 -87.4341 -178.31 44.6115 100.944 -96.7713 27.5587 -3.20101 98.9966 44.1598 17.0126 -20.9017 20.0536 -34.3668 179.998 55.3048 97.154 -94.4533 -49.3272 1.08055 118.662 -55.856 -2.92524 -100.057 -35.048 52.6912 0.0361994 5.57628 -90.599 15.7186 -0.229929 -1.17078 4.04719 -0.2812 -1.15954 -18.4837 0.132539 -1.18575 1.52889 0.132556 -1.18576 65.5167 -38.768 -144.084 29.5015 25.2073 13.3404 -24.1813 -13.3643 -60.744 17.8827 12.024 60.8007 -131.047 -64.0565 30.7285 -13.6392 -18.3716 36.0354 21.4394 22.0027 -35.2077 -30.3684 0.474827 -6.63985 -79.3975 16.6993 9.79742 92.2499 34.4387 10.0259 
-311.82 65.7744 357.354 -94.3517 -36.3076 -86.7523 178.914 47.4478 103.817 -95.4394 28.9827 -3.19572 96.1866 41.4507 16.5028 -3.33702 22.5972 -69.4882 178.556 57.0024 98.7681 -94.5425 -64.8353 1.80739 93.6593 -60.9766 -30.29 -75.2982 -48.0643 79.4659 0.0468463 5.58197 -90.659 15.7069 -0.239027 -1.29028 4.0353 -0.295579 -1.27852 -18.4947 0.159773 -1.30246 1.5179 0.159768 -1.30247 65.5144 -37.9682 -144.661 29.5017 26.4503 15.6444 -24.8961 -12.7556 -63.2928 18.6468 12.4288 60.3869 -130.941 -63.6379 30.6156 -13.4759 -16.798 35.518 21.0421 22.9343 -36.0614 -36.0079 0.914346 -7.69357 -79.3407 16.6658 9.10093 92.6672 34.3456 10.2933 
-313.155 65.5922 359.182 -94.4188 -36.6986 -86.0083 175.715 50.1329 107.058 -93.6632 30.2167 -3.14118 93.0474 38.3906 15.9756 12.5375 12.5724 -92.2948 176.561 58.8699 101.13 -94.2322 -82.5705 3.12504 63.759 -57.4177 -63.3204 -44.1214 -47.9935 110.176 0.0589047 5.5891 -90.7189 15.6921 -0.245082 -1.40993 4.02038 -0.307066 -1.39778 -18.5087 0.18978 -1.41846 1.50396 0.189768 -1.41847 65.5266 -37.2031 -145.2 29.4739 27.7042 17.9789 -25.6313 -12.1259 -65.9029 19.4283 12.8145 59.8764 -130.78 -63.1456 30.5244 -13.2511 -15.1635 34.9946 20.7158 24.0301 -37.0345 -41.8389 1.59279 -9.05843 -79.237 16.6305 8.31613 93.149 34.1877 10.528 
